
<svg width="26px" height="23px" viewBox="0 0 26 23" version="1.1" xmlns="http://www.w3.org/2000/svg" xmlns:xlink="http://www.w3.org/1999/xlink">
    <!-- Generator: Sketch 46.2 (44496) - http://www.bohemiancoding.com/sketch -->
    <desc>Created with Sketch.</desc>
    <defs></defs>
    <g id="/-Web" stroke="none" stroke-width="1" fill="none" fill-rule="evenodd">
        <g id="Web_square_04" transform="translate(-1612.000000, -960.000000)" fill="#1C69D4">
            <path d="M1631.5,965.055556 L1636.18578,965.055556 C1637.37744,965.055556 1638,965.712778 1638,966.905167 L1638,975.571833 C1638,976.7635 1637.37744,978.055556 1636.18578,978.055556 L1635.11111,978.055556 L1635.11111,982.388889 L1634.74133,982.388889 L1630.408,978.055556 L1623.18578,978.055556 C1621.99411,978.055556 1620.66667,976.7635 1620.66667,975.571833 L1620.66667,975.166667 L1627.51911,975.166667 C1629.90894,975.166667 1631.5,972.905389 1631.5,970.516278 L1631.5,965.055556 Z M1614.51911,960 L1627.51911,960 C1628.71078,960 1629.33333,960.657222 1629.33333,961.849611 L1629.33333,970.516278 C1629.33333,971.707944 1628.71078,973 1627.51911,973 L1620.29689,973 L1615.96356,977.333333 L1614.88889,977.333333 L1614.88889,973 L1614.51911,973 C1613.32744,973 1612,971.707944 1612,970.516278 L1612,961.849611 C1612,960.657222 1613.32744,960 1614.51911,960 Z" id="Icon_speech_bubble"></path>
        </g>
    </g>
</svg>